<svg width="18" height="18" viewBox="0 0 18 18" fill="none" xmlns="http://www.w3.org/2000/svg">
<path d="M15.1734 8.31095C15.1525 8.22028 15.1095 8.13621 15.0481 8.06627C14.9868 7.99632 14.909 7.94269 14.8219 7.91017L10.7719 6.39142L11.7984 1.23751C11.822 1.11813 11.8068 0.994322 11.7549 0.884238C11.703 0.774153 11.6172 0.683581 11.5101 0.625796C11.402 0.568261 11.2778 0.548098 11.157 0.568445C11.0362 0.588792 10.9255 0.648507 10.8422 0.738296L2.96717 9.1758C2.90265 9.24274 2.85596 9.32482 2.83139 9.4145C2.80682 9.50418 2.80515 9.59859 2.82655 9.68908C2.84856 9.77925 2.89202 9.86277 2.95322 9.93254C3.01443 10.0023 3.09158 10.0563 3.17811 10.0899L7.22811 11.6086L6.20155 16.7625C6.17794 16.8819 6.19319 17.0057 6.24507 17.1158C6.29695 17.2259 6.38273 17.3164 6.48983 17.3742C6.57056 17.415 6.65957 17.4366 6.74999 17.4375C6.8264 17.4378 6.90205 17.4224 6.97222 17.3922C7.04239 17.3619 7.10557 17.3175 7.1578 17.2617L15.0328 8.82423C15.0973 8.75728 15.144 8.67521 15.1686 8.58553C15.1932 8.49585 15.1948 8.40144 15.1734 8.31095V8.31095Z" fill="#FFD954" />
</svg>
