<svg width="21" height="21" viewBox="0 0 21 21" fill="none" xmlns="http://www.w3.org/2000/svg">
<g opacity="0.75">
<path d="M6.89062 19.6875C7.14947 19.6886 7.40597 19.6384 7.64532 19.5398C7.88467 19.4413 8.10213 19.2963 8.28516 19.1133C8.46819 18.9303 8.61317 18.7128 8.71172 18.4734C8.81028 18.2341 8.86046 17.9776 8.85938 17.7188V13.7812" stroke="white" stroke-width="1.5" stroke-linecap="round" stroke-linejoin="round"/>
<path d="M14.1094 19.6875C13.8505 19.6886 13.5941 19.6384 13.3547 19.5398C13.1154 19.4413 12.8979 19.2963 12.7149 19.1133C12.5318 18.9303 12.3868 18.7128 12.2883 18.4734C12.1897 18.2341 12.1396 17.9776 12.1406 17.7188V13.7812" stroke="white" stroke-width="1.5" stroke-linecap="round" stroke-linejoin="round"/>
<path d="M12.4688 13.7813H13.7812C14.0401 13.7802 14.2966 13.8304 14.5359 13.9289C14.7753 14.0275 14.9928 14.1724 15.1758 14.3555C15.3588 14.5385 15.5038 14.756 15.6023 14.9953C15.7009 15.2347 15.7511 15.4912 15.75 15.75V16.4063C15.7489 16.6651 15.7991 16.9216 15.8977 17.161C15.9962 17.4003 16.1412 17.6178 16.3242 17.8008C16.5072 17.9838 16.7247 18.1288 16.9641 18.2274C17.2034 18.3259 17.4599 18.3761 17.7188 18.375" stroke="white" stroke-width="1.5" stroke-linecap="round" stroke-linejoin="round"/>
<path d="M8.53125 13.7813H7.21875C6.95991 13.7802 6.70341 13.8304 6.46406 13.9289C6.22471 14.0275 6.00725 14.1724 5.82421 14.3555C5.64118 14.5385 5.49621 14.756 5.39765 14.9953C5.2991 15.2347 5.24891 15.4912 5.25 15.75V16.4063C5.25109 16.6651 5.2009 16.9216 5.10235 17.161C5.00379 17.4003 4.85882 17.6178 4.67579 17.8008C4.49275 17.9838 4.27529 18.1288 4.03594 18.2274C3.79659 18.3259 3.54009 18.3761 3.28125 18.375" stroke="white" stroke-width="1.5" stroke-linecap="round" stroke-linejoin="round"/>
<path d="M9.17109 5.25C8.78556 4.64667 8.25436 4.15009 7.62644 3.80603C6.99853 3.46196 6.29412 3.2815 5.57812 3.28125C5.25976 3.83232 5.06874 4.44764 5.01906 5.08211C4.96938 5.71659 5.0623 6.35414 5.29102 6.94805C4.84247 7.60926 4.59985 8.38853 4.59375 9.1875V9.84375C4.59375 10.888 5.00859 11.8896 5.74702 12.628C6.48544 13.3664 7.48696 13.7812 8.53125 13.7812H12.4688C13.513 13.7812 14.5146 13.3664 15.253 12.628C15.9914 11.8896 16.4062 10.888 16.4062 9.84375V9.1875C16.4002 8.38853 16.1575 7.60926 15.709 6.94805C15.9377 6.35414 16.0306 5.71659 15.9809 5.08211C15.9313 4.44764 15.7402 3.83232 15.4219 3.28125C14.7059 3.2815 14.0015 3.46196 13.3736 3.80603C12.7456 4.15009 12.2144 4.64667 11.8289 5.25H9.17109Z" stroke="white" stroke-width="1.5" stroke-linecap="round" stroke-linejoin="round"/>
</g>
</svg>
