<svg width="21" height="21" viewBox="0 0 21 21" fill="none" xmlns="http://www.w3.org/2000/svg">
<path d="M17.3478 3H3.65217C3.29199 3 3 3.29199 3 3.65217V17.3478C3 17.708 3.29199 18 3.65217 18H17.3478C17.708 18 18 17.708 18 17.3478V3.65217C18 3.29199 17.708 3 17.3478 3Z" stroke="white" stroke-width="1.5" stroke-linecap="round" stroke-linejoin="round"/>
<path d="M10 9V14.25" stroke="white" stroke-width="1.5" stroke-linecap="round" stroke-linejoin="round"/>
<path d="M7 9V14.25" stroke="white" stroke-width="1.5" stroke-linecap="round" stroke-linejoin="round"/>
<path d="M10 11.2969C10 10.6877 10.242 10.1035 10.6727 9.67274C11.1035 9.24199 11.6877 9 12.2969 9C12.906 9 13.4903 9.24199 13.921 9.67274C14.3518 10.1035 14.5938 10.6877 14.5938 11.2969V14.25" stroke="white" stroke-width="1.5" stroke-linecap="round" stroke-linejoin="round"/>
<path d="M7 6.75C7.41421 6.75 7.75 6.41421 7.75 6C7.75 5.58579 7.41421 5.25 7 5.25C6.58579 5.25 6.25 5.58579 6.25 6C6.25 6.41421 6.58579 6.75 7 6.75Z" fill="white"/>
</svg>
