<svg width="21" height="21" viewBox="0 0 21 21" fill="none" xmlns="http://www.w3.org/2000/svg">
<g opacity="0.75">
<path d="M10.5 13.7812C12.3122 13.7812 13.7812 12.3122 13.7812 10.5C13.7812 8.68782 12.3122 7.21875 10.5 7.21875C8.68782 7.21875 7.21875 8.68782 7.21875 10.5C7.21875 12.3122 8.68782 13.7812 10.5 13.7812Z" stroke="white" stroke-width="1.5" stroke-miterlimit="10"/>
<path d="M14.1094 2.95312H6.89062C4.716 2.95312 2.95312 4.716 2.95312 6.89062V14.1094C2.95312 16.284 4.716 18.0469 6.89062 18.0469H14.1094C16.284 18.0469 18.0469 16.284 18.0469 14.1094V6.89062C18.0469 4.716 16.284 2.95312 14.1094 2.95312Z" stroke="white" stroke-width="1.5" stroke-linecap="round" stroke-linejoin="round"/>
<path d="M14.7656 7.21875C15.3093 7.21875 15.75 6.77803 15.75 6.23438C15.75 5.69072 15.3093 5.25 14.7656 5.25C14.222 5.25 13.7812 5.69072 13.7812 6.23438C13.7812 6.77803 14.222 7.21875 14.7656 7.21875Z" fill="white"/>
</g>
</svg>
