<svg width="21" height="21" viewBox="0 0 21 21" fill="none" xmlns="http://www.w3.org/2000/svg">
<g opacity="0.75">
<path d="M13.2891 13.2891C14.8294 13.2891 16.0781 12.0404 16.0781 10.5C16.0781 8.95964 14.8294 7.71094 13.2891 7.71094C11.7487 7.71094 10.5 8.95964 10.5 10.5C10.5 12.0404 11.7487 13.2891 13.2891 13.2891Z" stroke="white" stroke-width="1.5" stroke-linecap="round" stroke-linejoin="round"/>
<path d="M10.5 7.71094V2.13281H7.71094C6.97123 2.13281 6.26182 2.42666 5.73877 2.94971C5.21572 3.47276 4.92188 4.18217 4.92188 4.92188C4.92188 5.66158 5.21572 6.37099 5.73877 6.89404C6.26182 7.41709 6.97123 7.71094 7.71094 7.71094H10.5Z" stroke="white" stroke-width="1.5" stroke-linecap="round" stroke-linejoin="round"/>
<path d="M10.5 13.2891V7.71094H7.71094C6.97123 7.71094 6.26182 8.00478 5.73877 8.52783C5.21572 9.05089 4.92188 9.76029 4.92188 10.5C4.92188 11.2397 5.21572 11.9491 5.73877 12.4722C6.26182 12.9952 6.97123 13.2891 7.71094 13.2891H10.5Z" stroke="white" stroke-width="1.5" stroke-linecap="round" stroke-linejoin="round"/>
<path d="M10.5 7.71094V2.13281H13.2891C14.0288 2.13281 14.7382 2.42666 15.2612 2.94971C15.7843 3.47276 16.0781 4.18217 16.0781 4.92188C16.0781 5.66158 15.7843 6.37099 15.2612 6.89404C14.7382 7.41709 14.0288 7.71094 13.2891 7.71094H10.5Z" stroke="white" stroke-width="1.5" stroke-linecap="round" stroke-linejoin="round"/>
<path d="M10.5 13.2891V16.0781C10.5 16.6297 10.3364 17.169 10.03 17.6276C9.72349 18.0863 9.2879 18.4438 8.77827 18.6549C8.26863 18.866 7.70784 18.9212 7.16682 18.8136C6.62579 18.706 6.12883 18.4403 5.73877 18.0503C5.34872 17.6602 5.08308 17.1633 4.97547 16.6222C4.86785 16.0812 4.92308 15.5204 5.13418 15.0108C5.34528 14.5012 5.70276 14.0656 6.16142 13.7591C6.62008 13.4526 7.15931 13.2891 7.71094 13.2891H10.5Z" stroke="white" stroke-width="1.5" stroke-linecap="round" stroke-linejoin="round"/>
</g>
</svg>
