<svg width="21" height="21" viewBox="0 0 21 21" fill="none" xmlns="http://www.w3.org/2000/svg">
<g opacity="0.75">
<path d="M10.5 18.375C14.8492 18.375 18.375 14.8492 18.375 10.5C18.375 6.15076 14.8492 2.625 10.5 2.625C6.15076 2.625 2.625 6.15076 2.625 10.5C2.625 14.8492 6.15076 18.375 10.5 18.375Z" stroke="white" stroke-width="1.5" stroke-linecap="round" stroke-linejoin="round"/>
<path d="M5.82422 16.841C6.99334 14.9062 8.64208 13.306 10.6109 12.1951C12.5797 11.0842 14.8019 10.5004 17.0625 10.5C17.5055 10.5 17.9402 10.5246 18.375 10.5656" stroke="white" stroke-width="1.5" stroke-linecap="round" stroke-linejoin="round"/>
<path d="M15.4223 4.35547C14.1923 5.866 12.6411 7.08343 10.8816 7.91922C9.12205 8.755 7.19835 9.18813 5.25039 9.18711C4.42205 9.18617 3.59555 9.10929 2.78125 8.95742" stroke="white" stroke-width="1.5" stroke-linecap="round" stroke-linejoin="round"/>
<path d="M7.04688 3.4209C9.48855 4.86023 11.4005 7.04908 12.4986 9.66205C13.5967 12.275 13.8223 15.1726 13.1418 17.924" stroke="white" stroke-width="1.5" stroke-linecap="round" stroke-linejoin="round"/>
</g>
</svg>
